<?xml version="1.0" encoding="UTF-8"?>
<svg id="Layer_2" data-name="Layer 2" xmlns="http://www.w3.org/2000/svg" viewBox="0 0 126.17 53.77">
  <defs>
    <style>
      .cls-1 {
        fill: #fff;
      }

      .cls-2 {
        fill: #f26522;
      }
    </style>
  </defs>
  <g id="Main">
    <g>
      <g>
        <path class="cls-1" d="M123.91,27.07h-1.33c-1.49,0-2.03-.34-2.94-1.48l-2.85-3.95.31-.45,2.29-3.15,5.76,7.51c.58.76.06,1.52-1.24,1.52Z"/>
        <path class="cls-1" d="M111.65,7.72v7.96l-1.29,1.84-3.5,4.99V7.72c0-1.45.37-1.81,1.85-1.81h1.09c1.48,0,1.85.36,1.85,1.81Z"/>
        <path class="cls-2" d="M125.31,6.9c-.05.11-.12.22-.23.34l-6.69,9.49-2.58,3.56-3.81,5.53h-.01s0,.03-.03.05c-.02.03-.05.07-.08.11,0,0-.02.02-.03.04h0s-.02.04-.04.05c-.14.17-.36.41-.67.6-.05.04-.1.07-.16.1-.03.02-.05.03-.08.04-.07.04-.15.07-.23.1-.08.03-.16.06-.25.08-.09.03-.19.05-.29.06-.1.01-.21.02-.33.02h-1.09c-1.49,0-1.85-.37-1.85-1.82l4.79-6.83h0s7.77-11.09,7.77-11.09c1-1.06,1.84-1.42,3.29-1.42h1.79c.08,0,.16,0,.23.02.07.01.14.03.2.06.05.02.1.04.14.07.06.04.1.08.14.12s.08.09.11.14c.09.17.09.37,0,.58Z"/>
      </g>
      <path class="cls-1" d="M60.92,34.42c0-1.45.36-1.81,1.85-1.81h6.05c5.57,0,8.39,2.27,8.39,5.59,0,2.33-1.57,3.93-3.66,4.23,2.27.3,4.93,1.12,4.93,5.08s-3.3,6.26-8.66,6.26h-7.05c-1.48,0-1.85-.36-1.85-1.81v-17.53ZM65.71,36.87v3.99h3.09c2.42,0,3.39-.88,3.39-2.09s-.94-1.9-3.36-1.9h-3.12ZM65.71,45.12v4.38h4.24c2.24,0,3.51-.85,3.51-2.21s-1.39-2.18-3.6-2.18h-4.15Z"/>
      <path class="cls-1" d="M109.78,34.42c0-1.45.36-1.81,1.85-1.81h10.84c1.45,0,1.85.36,1.85,1.81v.63c0,1.45-.39,1.81-1.85,1.81h-7.93v4.05h6.36c1.48,0,1.85.36,1.85,1.81v.63c0,1.45-.36,1.81-1.85,1.81h-6.36v4.32h8.26c1.45,0,1.85.36,1.85,1.81v.63c0,1.45-.39,1.81-1.85,1.81h-11.17c-1.48,0-1.85-.36-1.85-1.81v-17.53Z"/>
      <g>
        <path class="cls-1" d="M47.76,39.04c-.9,0-1.68-.23-2.19-.91l-.04.09c-.18.6-.39.74-1.03.74h-.12c-.64,0-.79-.16-.79-.78v-8.25c0-.62.16-.78.79-.78h.35c.64,0,.79.16.79.78v3.41l-.04.34c.51-.82,1.36-1.13,2.33-1.13,1.75,0,3.13.98,3.13,3.27s-1.39,3.23-3.19,3.23ZM47.29,37.46c1.03,0,1.69-.61,1.69-1.63s-.66-1.69-1.69-1.69-1.71.7-1.71,1.72.72,1.6,1.71,1.6Z"/>
        <path class="cls-1" d="M55.22,37.38l1.41-3.94c.21-.59.42-.74,1.04-.74h.59c.43,0,.63.06.63.31,0,.1-.04.25-.1.43l-2.15,5.48-.34.87c-.52,1.34-1.33,2.04-2.75,2.04-.14,0-.29,0-.42-.01-.31-.03-.59-.07-.74-.23-.12-.12-.17-.34-.12-.66l.03-.17c.08-.51.22-.69.46-.69.12,0,.18.03.33.03.74,0,1.2-.26,1.43-.86l.12-.31h-.09c-.65,0-.86-.14-1.07-.74l-1.69-4.74c-.07-.18-.1-.31-.1-.42,0-.25.2-.33.64-.33h.63c.64,0,.82.16,1.02.75l1.28,3.93Z"/>
      </g>
      <path class="cls-1" d="M19.01,7.56c.27.18.76.54.76,1.06,0,.3-.15.66-.61,1.09l-1,.94c-.48.48-.91.63-1.24.63-.48,0-.85-.3-1.15-.48-.94-.51-2.36-.82-3.97-.82-3.84,0-6.78,1.96-6.78,6.32s2.72,6.71,7.33,6.71c1.12,0,2.27-.12,3.33-.36v-3.2h-2.39c-1.45,0-1.79-.33-1.79-1.72v-.7c0-1.39.33-1.75,1.79-1.75h5.24c1.42,0,1.79.36,1.79,1.75v6.71c0,1.54-.55,2.15-1.6,2.57-1.33.54-3.94,1.06-6.54,1.06-7.81,0-12.17-4.38-12.17-10.79S4.48,5.62,11.84,5.62c3.03,0,5.3.7,7.17,1.93Z"/>
      <path class="cls-1" d="M57.11,23.12h-8.86l-.84,2.3c-.39,1.3-.87,1.63-2.25,1.63h-1.53c-1.08,0-1.53-.6-1.14-1.63l7.03-17.86c.45-1.33.9-1.66,2.31-1.66h1.56c1.38,0,1.86.33,2.34,1.6l7.27,17.95c.39,1.03,0,1.6-1.14,1.6h-1.5c-1.41,0-1.86-.33-2.31-1.63l-.93-2.3ZM49.75,19.16h5.79l-2.97-7.56-2.82,7.56Z"/>
      <path class="cls-1" d="M92.69,11.67c0,3.29,10.75,2.27,10.75,9.4,0,3.99-3.06,6.29-8.14,6.29-3.63,0-5.99-.82-7.14-1.78-.45-.39-.67-.79-.67-1.21,0-.45.24-.91.73-1.3l.51-.42c.55-.42,1-.63,1.45-.63s.91.21,1.42.54c.91.63,2.09.85,3.66.85,2.06,0,3.51-.76,3.51-2.33,0-3.63-10.81-1.69-10.81-9.37,0-3.81,2.85-6.08,7.96-6.08,2.48,0,4.45.54,6.11,1.6.3.21.76.57.76,1.12,0,.36-.21.79-.85,1.3l-.61.45c-.64.48-1.09.66-1.45.66-.48,0-.79-.27-1.06-.42-.73-.33-1.54-.57-2.66-.57-2.39,0-3.48.63-3.48,1.9Z"/>
      <path class="cls-1" d="M80.55,20.43V7.71c0-1.45.36-1.81,1.85-1.81h1.12c1.45,0,1.82.36,1.82,1.81v17.53c0,1.45-.36,1.81-1.82,1.81h-1.76c-1.48,0-2.03-.3-2.82-1.57l-7.54-10.4c-.94-1.33-1.54-2.27-1.7-3.14h-.12v13.3c0,1.45-.36,1.81-1.85,1.81h-1.09c-1.48,0-1.85-.36-1.85-1.81V7.71c0-1.45.36-1.81,1.85-1.81h1.85c1.45,0,2.03.3,2.79,1.54l7.72,10.06c.79,1.03,1.27,1.96,1.45,2.93h.09Z"/>
      <path class="cls-1" d="M80.66,34.42c0-1.45.36-1.81,1.85-1.81h1.09c1.48,0,1.85.36,1.85,1.81v17.53c0,1.45-.36,1.81-1.85,1.81h-1.09c-1.48,0-1.85-.36-1.85-1.81v-17.53Z"/>
      <g>
        <path class="cls-1" d="M104.43,53.77h-1.33c-1.49,0-2.03-.34-2.94-1.48l-2.85-3.95.31-.45,2.29-3.15,5.76,7.51c.58.76.06,1.52-1.24,1.52Z"/>
        <path class="cls-1" d="M92.17,34.42v7.96l-1.29,1.84-3.5,4.99v-14.79c0-1.45.37-1.81,1.85-1.81h1.09c1.48,0,1.85.36,1.85,1.81Z"/>
        <path class="cls-2" d="M105.83,33.6c-.05.11-.12.22-.23.34l-6.69,9.49-2.58,3.56-3.81,5.53h-.01s0,.03-.03.05c-.02.03-.05.07-.08.11,0,0-.02.02-.03.04h0s-.02.04-.04.05c-.14.17-.36.41-.67.6-.05.04-.1.07-.16.1-.03.02-.05.03-.08.04-.07.04-.15.07-.23.1-.08.03-.16.06-.25.08-.09.03-.19.05-.29.06-.1.01-.21.02-.33.02h-1.09c-1.49,0-1.85-.37-1.85-1.82l4.79-6.83h0s7.77-11.09,7.77-11.09c1-1.06,1.84-1.42,3.29-1.42h1.79c.08,0,.16,0,.23.02.07.01.14.03.2.06.05.02.1.04.14.07.06.04.1.08.14.12s.08.09.11.14c.09.17.09.37,0,.58Z"/>
      </g>
      <g>
        <path class="cls-2" d="M108.71,26.29c-.97,0-1.05-.02-1.06-.78l12.38-17.67c.83-.86,1.46-1.13,2.68-1.13h1.79s-.05.06-.07.09l-6.68,9.49-2.58,3.55-3.82,5.55c-.05.08-.56.9-1.55.9h-1.09Z"/>
        <path class="cls-2" d="M122.98,7.49l-5.86,8.33-2.61,3.59-3.81,5.53s-.03.04-.05.08c-.03.05-.33.48-.86.48h-1.09s-.06,0-.09,0l4.32-6.17,7.71-11c.66-.68,1.08-.84,2.07-.84h.27M124.5,5.92h-1.79c-1.45,0-2.29.36-3.29,1.42l-7.78,11.1-4.78,6.83c0,1.45.36,1.81,1.85,1.81h1.09c1.48,0,2.2-1.24,2.2-1.24l3.81-5.53,2.59-3.56,6.68-9.49c.64-.66.21-1.33-.58-1.33h0Z"/>
      </g>
      <path class="cls-1" d="M23.1,7.71c0-1.45.36-1.81,1.85-1.81h5.63c7.11,0,11.78,3.99,11.78,10.67s-4.72,10.49-11.78,10.49h-5.63c-1.48,0-1.85-.36-1.85-1.81V7.71ZM27.88,10.15v12.63h2.72c4.78,0,6.72-2.36,6.72-6.26,0-4.2-2.72-6.38-6.72-6.38h-2.72Z"/>
      <path class="cls-1" d="M72.09,3.87c0-.24.18-.57.48-1l.94-1.27c1.06-1.39,1.48-1.6,2.75-1.6h2.66c.79,0,1.24.15,1.24.48,0,.21-.18.51-.61.85l-2.33,1.81c-1.36,1.09-2.09,1.24-2.94,1.24h-1.03c-.79,0-1.18-.15-1.18-.51Z"/>
    </g>
  </g>
</svg>