<?xml version="1.0" encoding="UTF-8"?>
<svg id="Layer_2" data-name="Layer 2" xmlns="http://www.w3.org/2000/svg" viewBox="0 0 51.76 43.65">
  <defs>
    <style>
      .cls-1 {
        fill: #2d68b2;
      }
    </style>
  </defs>
  <g id="Main">
    <g>
      <path class="cls-1" d="M5.15,2.38c.75-.24,1.28-.36,1.9-.52.6-.15,1.19-.29,1.78-.41,1.18-.26,2.36-.47,3.55-.67,2.37-.38,4.77-.64,7.21-.74,2.44-.09,4.92-.04,7.44.31,2.52.35,5.09.98,7.57,2.13,2.47,1.14,4.82,2.89,6.49,5.14,1.69,2.23,2.64,4.81,3.1,7.28.81,4.99.08,9.63-1.07,13.97-.21.8-1.03,1.28-1.83,1.07-.71-.19-1.17-.85-1.11-1.56h0c.31-4.25.04-8.54-1.29-12.06-.7-1.73-1.65-3.2-2.86-4.25-1.2-1.06-2.64-1.73-4.26-2.12-3.25-.77-7.1-.4-10.88.5-1.9.45-3.79,1.04-5.66,1.72-.93.35-1.86.71-2.77,1.1-.46.19-.9.4-1.34.6-.41.2-.92.43-1.19.59-3.12,1.86-7.15.84-9.01-2.28S.09,5.03,3.21,3.17c.44-.26.9-.47,1.37-.62l.57-.18Z"/>
      <polygon class="cls-1" points="37.43 43.65 34.39 20.1 41.74 27.45 51.76 24.71 37.43 43.65"/>
    </g>
  </g>
</svg>